<svg width="68" height="59" viewBox="0 0 68 59" fill="none" xmlns="http://www.w3.org/2000/svg">
<path d="M53.429 28.7463C48.0908 31.2025 36.7204 36.4409 31.2495 38.9604L8.22247 28.3547V47.3L31.2495 59.0001L54.2764 47.3V28.3547L53.429 28.7463ZM55.1238 29.2571C57.1963 31.5725 58.5656 34.5569 58.8235 37.5998L68.0005 36.8229C67.6167 32.2847 65.8268 27.9191 63.039 24.3428C62.642 24.5259 54.3759 28.3066 54.2764 28.3547C54.5712 28.6356 54.8567 28.9519 55.1238 29.2571Z" fill="#002350"/>
<path d="M31.2491 28.7863C40.1259 24.7004 53.624 18.4779 62.4983 14.3916L31.2491 0L0 14.3916C5.48533 16.9185 26.1697 26.4484 31.2491 28.7863Z" fill="#002350"/>
</svg>
