<svg width="46" height="59" viewBox="0 0 46 59" fill="none" xmlns="http://www.w3.org/2000/svg">
<g clip-path="url(#clip0_4001_761)">
<path d="M20.9094 5.48837V0H11.8488C11.2942 0 10.7624 0.216839 10.3703 0.602815C9.97815 0.988791 9.75786 1.51229 9.75786 2.05814V5.48837H20.9094ZM25.0912 5.48837H36.2427V2.05814C36.2427 1.51229 36.0224 0.988791 35.6303 0.602815C35.2382 0.216839 34.7063 0 34.1518 0H25.0912V5.48837ZM45.8776 38.4241C46.0592 37.9231 46.0366 37.3723 45.8147 36.8873C45.5928 36.4024 45.1887 36.0208 44.6872 35.8226L23.7781 27.59C23.2789 27.3931 22.7217 27.3931 22.2225 27.59L1.31338 35.8226C0.811881 36.0208 0.407802 36.4024 0.18587 36.8873C-0.0360624 37.3723 -0.0586109 37.9231 0.122952 38.4241L6.43192 55.814C6.77054 56.7465 7.39378 57.5532 8.21626 58.1236C9.03875 58.6939 10.0203 59.0001 11.0263 59H34.9742C37.0373 59 38.8773 57.724 39.5686 55.814L45.8776 38.4241ZM20.9094 54.8837H25.0912V43.2209C25.0912 42.6751 24.8709 42.1516 24.4788 41.7656C24.0867 41.3796 23.5548 41.1628 23.0003 41.1628C22.4457 41.1628 21.9139 41.3796 21.5218 41.7656C21.1297 42.1516 20.9094 42.6751 20.9094 43.2209V54.8837ZM20.9094 25.1505V20.5814H4.1821V31.7365L20.9094 25.1505ZM41.8185 31.7365V20.5814H25.0912V25.1505L41.8185 31.7365ZM20.9094 8.23256H6.27301C5.71847 8.23256 5.18664 8.4494 4.79452 8.83537C4.4024 9.22135 4.1821 9.74485 4.1821 10.2907V16.4651H20.9094V8.23256ZM25.0912 8.23256V16.4651H41.8185V10.2907C41.8185 9.74485 41.5982 9.22135 41.2061 8.83537C40.8139 8.4494 40.2821 8.23256 39.7276 8.23256H25.0912Z" fill="#002350"/>
</g>
<defs>
<clipPath id="clip0_4001_761">
<rect width="46" height="59" fill="white"/>
</clipPath>
</defs>
</svg>
