<svg width="60" height="59" viewBox="0 0 60 59" fill="none" xmlns="http://www.w3.org/2000/svg">
<g clip-path="url(#clip0_4001_751)">
<path d="M23.7592 0C17.3975 1.34985 11.6438 4.72802 7.36042 9.62828C3.07703 14.5285 0.494562 20.687 0 27.1808H9.21652C9.55308 21.8709 11.0259 16.6956 13.5351 12.0058C16.0443 7.31608 19.5311 3.22157 23.7592 0ZM13.8711 27.1808H27.6727V2.87579C23.7037 5.63544 20.4034 9.25162 18.0148 13.458C15.6262 17.6643 14.2102 22.3537 13.8711 27.1808ZM32.3041 2.87579V27.1808H46.1057C45.7666 22.3537 44.3506 17.6643 41.962 13.458C39.5735 9.25162 36.2731 5.63544 32.3041 2.87579ZM9.21652 31.8192H0C0.494562 38.313 3.07703 44.4715 7.36042 49.3717C11.6438 54.272 17.3975 57.6501 23.7592 59C19.5311 55.7784 16.0443 51.6839 13.5351 46.9942C11.0259 42.3044 9.55308 37.1291 9.21652 31.8192ZM27.6727 56.1242V31.8192H13.8711C14.2102 36.6463 15.6262 41.3357 18.0148 45.542C20.4034 49.7484 23.7037 53.3646 27.6727 56.1242ZM46.1057 31.8192H32.3041V56.1242C36.2731 53.3646 39.5735 49.7484 41.962 45.542C44.3506 41.3357 45.7666 36.6463 46.1057 31.8192ZM36.2177 59C42.5803 57.6476 48.335 54.2693 52.6217 49.3701C56.9084 44.4708 59.4968 38.3138 60 31.8192H50.7603C50.4238 37.1291 48.9509 42.3044 46.4418 46.9942C43.9326 51.6839 40.4457 55.7784 36.2177 59ZM50.7603 27.1808H60C59.4968 20.6862 56.9084 14.5292 52.6217 9.62994C48.335 4.73069 42.5803 1.35239 36.2177 0C40.4457 3.22157 43.9326 7.31608 46.4418 12.0058C48.9509 16.6956 50.4238 21.8709 50.7603 27.1808Z" fill="#002350"/>
</g>
<defs>
<clipPath id="clip0_4001_751">
<rect width="60" height="59" fill="white"/>
</clipPath>
</defs>
</svg>
