<svg width="127" height="127" viewBox="0 0 127 127" fill="none" xmlns="http://www.w3.org/2000/svg">
<g clip-path="url(#clip0_4023_3259)">
<circle cx="63.5" cy="63.5" r="61" stroke="black" stroke-width="5" stroke-miterlimit="2.3662" stroke-dasharray="1 7"/>
<path d="M44.264 70V58.848H47.352C49.176 58.848 50.5893 59.344 51.592 60.336C52.5947 61.3173 53.096 62.7093 53.096 64.512C53.096 66.2827 52.6 67.6427 51.608 68.592C50.616 69.5307 49.192 70 47.336 70H44.264ZM45.672 68.704H47.208C48.1573 68.704 48.9627 68.5653 49.624 68.288C50.296 68 50.8027 67.5467 51.144 66.928C51.496 66.2987 51.672 65.4773 51.672 64.464C51.672 63.4507 51.496 62.6293 51.144 62C50.8027 61.36 50.3067 60.8907 49.656 60.592C49.016 60.2933 48.2427 60.144 47.336 60.144H45.672V68.704ZM55.1703 70V58.848H58.4983C59.3516 58.848 60.0503 58.976 60.5943 59.232C61.1383 59.4773 61.5436 59.8347 61.8103 60.304C62.0769 60.7733 62.2103 61.3333 62.2103 61.984C62.2103 62.912 61.9436 63.648 61.4103 64.192C60.8769 64.7253 60.1036 65.04 59.0903 65.136C58.9303 65.1467 58.7383 65.152 58.5143 65.152C58.2903 65.152 58.0716 65.152 57.8583 65.152H56.5783V70H55.1703ZM61.4103 70L58.5143 64.976L59.9543 64.8L63.0263 70H61.4103ZM56.5783 63.904H58.3543C58.8449 63.904 59.2716 63.84 59.6343 63.712C59.9969 63.584 60.2796 63.3813 60.4823 63.104C60.6956 62.8267 60.8023 62.4587 60.8023 62C60.8023 61.5307 60.6956 61.1627 60.4823 60.896C60.2796 60.6187 59.9916 60.4213 59.6183 60.304C59.2556 60.176 58.8343 60.112 58.3543 60.112H56.5783V63.904ZM63.7408 70L67.9968 58.848H69.1168L73.3728 70H71.8368L68.5728 60.864L65.2928 70H63.7408ZM66.1088 67.376L66.5408 66.112H70.5728L71.0368 67.376H66.1088ZM79.0283 70.192C78.0256 70.192 77.1403 69.952 76.3723 69.472C75.6149 68.992 75.0229 68.32 74.5963 67.456C74.1696 66.5813 73.9563 65.568 73.9563 64.416C73.9563 63.264 74.1696 62.256 74.5963 61.392C75.0336 60.528 75.6363 59.856 76.4043 59.376C77.1829 58.896 78.0843 58.656 79.1083 58.656C80.2283 58.656 81.1989 58.9333 82.0203 59.488C82.8416 60.0427 83.4336 60.8107 83.7963 61.792L82.4843 62.288C82.2069 61.5627 81.7803 61.0027 81.2043 60.608C80.6283 60.2027 79.9296 60 79.1083 60C78.3509 60 77.6896 60.1813 77.1243 60.544C76.5589 60.9067 76.1216 61.4187 75.8123 62.08C75.5136 62.7307 75.3643 63.5093 75.3643 64.416C75.3643 65.3227 75.5136 66.1067 75.8123 66.768C76.1216 67.4293 76.5589 67.9413 77.1243 68.304C77.6896 68.6667 78.3509 68.848 79.1083 68.848C79.4923 68.848 79.8869 68.7947 80.2923 68.688C80.6976 68.5813 81.0709 68.3947 81.4123 68.128C81.7536 67.8613 82.0256 67.4987 82.2283 67.04C82.4416 66.5707 82.5483 65.9787 82.5483 65.264V64.448L82.8683 65.408H79.7323V64.144H83.7963V70H82.5483L82.3563 67.824L82.5963 68C82.4043 68.512 82.1269 68.928 81.7643 69.248C81.4016 69.568 80.9803 69.808 80.5003 69.968C80.0309 70.1173 79.5403 70.192 79.0283 70.192Z" fill="black"/>
</g>
<defs>
<clipPath id="clip0_4023_3259">
<rect width="127" height="127" fill="white"/>
</clipPath>
</defs>
</svg>
