<svg width="190" height="41" viewBox="0 0 190 41" fill="none" xmlns="http://www.w3.org/2000/svg">
<g clip-path="url(#clip0_4006_92)">
<path d="M105.4 29.1839V8.66377H109.792V14.4844L109.671 18.3425L112.527 14.8474L118.085 8.65705H123.244L116.091 16.7764L123.548 29.1839H118.482L112.985 19.9623L109.792 23.4238V29.1839H105.4Z" fill="white"/>
<path d="M123.574 25.2049L126.457 21.8375C127.838 24.4118 130.816 25.541 133.274 25.541C135.053 25.541 136.346 24.9898 136.346 23.5784C136.346 21.9854 134.999 21.4679 132.264 20.9167L130.27 20.4866C127.077 19.8413 124.066 18.4366 124.066 14.5449C124.066 10.6533 127.535 8.42181 131.711 8.42181C135.578 8.42181 138.677 9.89377 140.401 12.3403L137.424 15.6808C136.07 13.5367 133.678 12.3739 131.314 12.3739C129.751 12.3739 128.613 13.0461 128.613 14.2425C128.613 15.7413 129.933 16.2925 132.082 16.7831L134.413 17.3343C138.252 18.2215 140.859 19.7875 140.859 23.4574C140.859 27.3759 137.545 29.4931 133.092 29.4931C129.132 29.4931 125.481 28.2093 123.574 25.2049Z" fill="white"/>
<path d="M143.345 29.1839V8.66377H147.737V16.8705H156.514V8.66377H160.906V29.1839H156.514V20.7621H147.737V29.1839H143.345Z" fill="white"/>
<path d="M164.8 29.1839V8.66377H169.192V29.1839H164.8Z" fill="white"/>
<path d="M173.119 29.1839V8.66377H181.654C186.383 8.66377 190.007 10.8415 190.007 16.0169C190.007 21.1923 186.443 23.2423 181.654 23.2423H177.511V29.1839H173.119ZM177.504 12.5554V19.3574H181.492C183.762 19.3574 185.392 18.4366 185.392 16.0169C185.392 13.4426 183.762 12.5554 181.492 12.5554H177.504Z" fill="white"/>
<path d="M105.602 40.8925V33.983H106.768V39.8641H110.311V40.8925H105.596H105.602Z" fill="white"/>
<path d="M110.317 37.431C110.317 35.4415 111.692 33.8821 113.726 33.8821C115.76 33.8821 117.134 35.4415 117.134 37.431C117.134 39.4205 115.747 40.9866 113.726 40.9866C111.705 40.9866 110.317 39.4272 110.317 37.431ZM115.915 37.431C115.915 36.0061 115.181 34.9844 113.733 34.9844C112.284 34.9844 111.543 36.0061 111.543 37.431C111.543 38.8559 112.284 39.8775 113.733 39.8775C115.181 39.8775 115.915 38.8693 115.915 37.431Z" fill="white"/>
<path d="M117.013 38.7518L118.024 38.0057C118.159 39.108 118.664 39.9012 119.728 39.9012C120.732 39.9012 121.069 39.4441 121.069 38.073V33.9998H122.234V38.241C122.234 40.2439 121.419 41.0169 119.721 41.0169C118.287 41.0169 117.323 40.1498 117 38.7451L117.013 38.7518Z" fill="white"/>
<path d="M124.194 40.8925V33.983H125.36V40.8925H124.194ZM124.208 33.2907V32.2623H125.366V33.2907H124.208Z" fill="white"/>
<path d="M126.343 39.36L127.171 38.5266C127.542 39.5348 128.586 39.9313 129.435 39.9313C130.128 39.9313 130.688 39.6826 130.688 39.0575C130.688 38.3854 130.128 38.2039 129.233 38.0023L128.579 37.8612C127.596 37.6528 126.552 37.2092 126.552 35.8985C126.552 34.5879 127.677 33.8956 128.983 33.8956C130.29 33.8956 131.267 34.4198 131.765 35.3675L130.89 36.201C130.506 35.3474 129.765 34.971 128.916 34.971C128.256 34.971 127.778 35.2802 127.778 35.8044C127.778 36.4161 128.256 36.6312 129.01 36.8126L129.785 37.0008C130.89 37.2697 131.887 37.6998 131.887 39.0239C131.887 40.2741 130.829 40.9933 129.428 40.9933C128.108 40.9933 126.895 40.5161 126.356 39.3533L126.343 39.36Z" fill="white"/>
<path d="M134.05 40.8925V35.0113H131.928V33.983H137.344V35.0113H135.215V40.8925H134.05Z" fill="white"/>
<path d="M137.821 40.8925V33.983H138.987V40.8925H137.821ZM137.828 33.2907V32.2623H138.987V33.2907H137.828Z" fill="white"/>
<path d="M140.536 40.8925V33.983H141.701V36.0733L141.661 37.4243L142.665 36.2884L144.854 33.9762H146.269L143.695 36.7185L146.417 40.8857H145.022L142.86 37.5654L141.701 38.782V40.8857H140.536V40.8925Z" fill="white"/>
<path d="M150.943 40.8925V35.0113H148.821V33.983H154.237V35.0113H152.109V40.8925H150.943Z" fill="white"/>
<path d="M154.716 40.8925V33.983H155.881V40.8925H154.716ZM154.729 33.2907V32.2623H155.888V33.2907H154.729Z" fill="white"/>
<path d="M156.979 37.431C156.979 35.4415 158.179 33.8821 160.307 33.8821C161.836 33.8821 162.894 34.6685 163.379 36.0195L162.368 36.7656C162.153 35.7238 161.513 34.9912 160.321 34.9912C158.893 34.9912 158.219 35.9993 158.219 37.4377C158.219 38.8761 158.893 39.8843 160.321 39.8843C161.506 39.8843 162.153 39.1382 162.368 38.1098L163.379 38.8492C162.894 40.1867 161.836 40.9866 160.307 40.9866C158.179 40.9866 156.979 39.4272 156.979 37.4377V37.431Z" fill="white"/>
<path d="M163.554 40.8925L166.262 33.983H167.602L170.31 40.8925H169.03L168.37 39.1516H165.447L164.786 40.8925H163.554ZM165.831 38.1434H167.993L167.292 36.2749L166.922 35.0248L166.551 36.2749L165.837 38.1434H165.831Z" fill="white"/>
<path d="M170.774 40.8925V33.983H173.893C175.301 33.983 176.352 34.7021 176.352 36.1271C176.352 37.2831 175.557 37.962 174.473 38.0897C174.883 38.2107 175.166 38.4728 175.416 38.903L176.594 40.8925H175.254L174.055 38.8425C173.799 38.3787 173.442 38.2107 172.795 38.2107H171.946V40.8925H170.781H170.774ZM171.946 35.018V37.263H173.785C174.52 37.263 175.153 36.9941 175.153 36.1607C175.153 35.2869 174.52 35.018 173.785 35.018H171.946Z" fill="white"/>
<path d="M177.302 40.8925V33.983H182.199V35.0113H178.467V36.8462H181.559V37.8746H178.467V39.8574H182.199V40.8857H177.302V40.8925Z" fill="white"/>
<path d="M184.597 40.8925V35.0113H182.476V33.983H187.891V35.0113H185.763V40.8925H184.597Z" fill="white"/>
<path d="M51.4513 25.9241L41.8994 25.0772V31.2205H43.5363L51.4513 25.9241Z" fill="white"/>
<path d="M13.8165 27.6515L23.7927 26.3072V22.7584H21.4957V20.0497H23.8197V17.8249H19.6567V14.35H15.4938V10.4382H14.3352V14.35H12.4019V6.45246H11.2433V14.35H9.20895V10.4382H8.05033V14.35H5.63206V17.1528H2.61426V30.582L6.6829 30.1989L9.15506 34.6618L13.8165 34.03V27.6515ZM16.0394 18.9138H17.3058V22.1938H16.0394V18.9138ZM8.40062 22.1938H7.13422V18.9138H8.40062V22.1938ZM11.5868 22.1938V18.9138H12.8532V22.1938H11.5868Z" fill="white"/>
<path d="M15.4873 33.8015L34.6247 31.2205V26.2534L15.4873 28.9218V33.8015Z" fill="white"/>
<path d="M93.2957 21.8375L90.837 19.8816L88.8835 20.0497V18.1274H86.7616V5.45098L85.1719 6.02229V7.96475L58.8335 0H56.6712V2.82295H55.9437V14.592L37.1094 6.66082H35.2502V9.09393H34.6237V22.3954L36.4694 25.998V31.2272H39.7904V25.1982L38.3152 22.3954V19.9892L55.9437 16.9982V18.282L58.0858 22.4693V24.0892L47.2271 31.2339H58.8268L33.2159 33.7679L8.22475 36.5102L5.61112 31.5633L-0.00683594 32.6252V37.7469L4.17632 41.0134L83.865 40.2472L87.9269 31.402L78.914 31.2272L90.4328 29.5334L93.2957 21.851V21.8375ZM37.1094 9.08721V7.54803L52.9663 14.2223L38.3084 9.08721H37.1026H37.1094ZM38.3152 16.9175V9.96098L54.1923 15.4523L38.3152 16.9243V16.9175ZM58.8335 2.82295V0.87377L74.8049 5.68623L80.9416 7.53459L60.2346 2.82295H58.8335ZM82.8007 8.80492L74.495 9.7459L60.2279 11.3657V3.71688L82.794 8.80492H82.8007ZM70.8575 22.0862L61.9456 23.2221V21.5216L60.2346 18.2685V15.0557L75.1215 11.9774L76.7651 11.6346L85.1719 9.89377V18.1274H82.9893L82.9691 20.547L70.8575 22.0862Z" fill="white"/>
</g>
<defs>
<clipPath id="clip0_4006_92">
<rect width="190" height="41" fill="white"/>
</clipPath>
</defs>
</svg>
