<svg width="190" height="41" viewBox="0 0 190 41" fill="none" xmlns="http://www.w3.org/2000/svg">
<g clip-path="url(#clip0_6017_68)">
<path d="M105.4 29.1838V8.6636H109.792V14.4843L109.671 18.3423L112.527 14.8472L118.084 8.65688H123.244L116.09 16.7762L123.547 29.1838H118.482L112.985 19.9621L109.792 23.4236V29.1838H105.4Z" fill="#002350"/>
<path d="M123.574 25.205L126.457 21.8376C127.838 24.4119 130.816 25.5411 133.274 25.5411C135.053 25.5411 136.346 24.9899 136.346 23.5785C136.346 21.9855 134.999 21.468 132.264 20.9168L130.27 20.4867C127.077 19.8414 124.066 18.4367 124.066 14.545C124.066 10.6534 127.535 8.42191 131.712 8.42191C135.578 8.42191 138.677 9.89387 140.401 12.3404L137.424 15.6809C136.07 13.5368 133.679 12.374 131.314 12.374C129.751 12.374 128.613 13.0462 128.613 14.2426C128.613 15.7414 129.933 16.2926 132.082 16.7832L134.413 17.3344C138.252 18.2216 140.859 19.7876 140.859 23.4575C140.859 27.376 137.545 29.4932 133.093 29.4932C129.132 29.4932 125.481 28.2094 123.574 25.205Z" fill="#002350"/>
<path d="M143.344 29.1844V8.66425H147.736V16.871H156.514V8.66425H160.906V29.1844H156.514V20.7626H147.736V29.1844H143.344Z" fill="#002350"/>
<path d="M164.799 29.1844V8.66425H169.191V29.1844H164.799Z" fill="#002350"/>
<path d="M173.118 29.1844V8.66425H181.653C186.382 8.66425 190.006 10.842 190.006 16.0174C190.006 21.1928 186.443 23.2428 181.653 23.2428H177.51V29.1844H173.118ZM177.504 12.5559V19.3579H181.491C183.762 19.3579 185.392 18.437 185.392 16.0174C185.392 13.4431 183.762 12.5559 181.491 12.5559H177.504Z" fill="#002350"/>
<path d="M105.602 40.8922V33.9827H106.767V39.8638H110.311V40.8922H105.595H105.602Z" fill="#002350"/>
<path d="M110.317 37.4303C110.317 35.4408 111.691 33.8815 113.726 33.8815C115.76 33.8815 117.134 35.4408 117.134 37.4303C117.134 39.4198 115.746 40.9859 113.726 40.9859C111.705 40.9859 110.317 39.4266 110.317 37.4303ZM115.915 37.4303C115.915 36.0054 115.181 34.9838 113.732 34.9838C112.284 34.9838 111.543 36.0054 111.543 37.4303C111.543 38.8553 112.284 39.8769 113.732 39.8769C115.181 39.8769 115.915 38.8687 115.915 37.4303Z" fill="#002350"/>
<path d="M117.012 38.7515L118.023 38.0054C118.158 39.1077 118.663 39.9008 119.727 39.9008C120.731 39.9008 121.068 39.4438 121.068 38.0726V33.9995H122.233V38.2406C122.233 40.2436 121.418 41.0165 119.72 41.0165C118.286 41.0165 117.322 40.1495 116.999 38.7447L117.012 38.7515Z" fill="#002350"/>
<path d="M124.194 40.8922V33.9827H125.36V40.8922H124.194ZM124.208 33.2904V32.262H125.366V33.2904H124.208Z" fill="#002350"/>
<path d="M126.343 39.3597L127.171 38.5263C127.542 39.5345 128.586 39.931 129.434 39.931C130.128 39.931 130.687 39.6823 130.687 39.0573C130.687 38.3851 130.128 38.2037 129.232 38.002L128.579 37.8609C127.595 37.6525 126.551 37.2089 126.551 35.8982C126.551 34.5876 127.676 33.8953 128.983 33.8953C130.29 33.8953 131.267 34.4196 131.765 35.3673L130.889 36.2007C130.505 35.3471 129.765 34.9707 128.916 34.9707C128.256 34.9707 127.777 35.2799 127.777 35.8041C127.777 36.4158 128.256 36.6309 129.01 36.8123L129.785 37.0005C130.889 37.2694 131.886 37.6996 131.886 39.0237C131.886 40.2738 130.829 40.993 129.428 40.993C128.107 40.993 126.895 40.5158 126.356 39.353L126.343 39.3597Z" fill="#002350"/>
<path d="M134.049 40.8922V35.011H131.927V33.9827H137.343V35.011H135.214V40.8922H134.049Z" fill="#002350"/>
<path d="M137.821 40.8922V33.9827H138.987V40.8922H137.821ZM137.828 33.2904V32.262H138.987V33.2904H137.828Z" fill="#002350"/>
<path d="M140.536 40.8925V33.983H141.701V36.0734L141.661 37.4244L142.665 36.2885L144.854 33.9763H146.268L143.695 36.7186L146.417 40.8858H145.022L142.86 37.5655L141.701 38.7821V40.8858H140.536V40.8925Z" fill="#002350"/>
<path d="M150.943 40.8922V35.011H148.821V33.9827H154.237V35.011H152.108V40.8922H150.943Z" fill="#002350"/>
<path d="M154.716 40.8922V33.9827H155.881V40.8922H154.716ZM154.729 33.2904V32.262H155.888V33.2904H154.729Z" fill="#002350"/>
<path d="M156.979 37.4303C156.979 35.4408 158.178 33.8815 160.307 33.8815C161.836 33.8815 162.893 34.6679 163.378 36.0189L162.368 36.7649C162.152 35.7231 161.512 34.9905 160.32 34.9905C158.892 34.9905 158.218 35.9987 158.218 37.4371C158.218 38.8754 158.892 39.8836 160.32 39.8836C161.506 39.8836 162.152 39.1376 162.368 38.1092L163.378 38.8485C162.893 40.1861 161.836 40.9859 160.307 40.9859C158.178 40.9859 156.979 39.4266 156.979 37.4371V37.4303Z" fill="#002350"/>
<path d="M163.553 40.8922L166.261 33.9827H167.602L170.309 40.8922H169.03L168.369 39.1514H165.446L164.786 40.8922H163.553ZM165.83 38.1432H167.992L167.292 36.2746L166.921 35.0245L166.551 36.2746L165.837 38.1432H165.83Z" fill="#002350"/>
<path d="M170.774 40.8921V33.9826H173.893C175.3 33.9826 176.351 34.7018 176.351 36.1267C176.351 37.2828 175.556 37.9616 174.472 38.0894C174.883 38.2103 175.166 38.4725 175.415 38.9026L176.594 40.8921H175.253L174.054 38.8421C173.798 38.3784 173.441 38.2103 172.795 38.2103H171.946V40.8921H170.781H170.774ZM171.946 35.0177V37.2626H173.785C174.519 37.2626 175.152 36.9938 175.152 36.1603C175.152 35.2866 174.519 35.0177 173.785 35.0177H171.946Z" fill="#002350"/>
<path d="M177.302 40.8922V33.9827H182.199V35.011H178.467V36.8459H181.559V37.8743H178.467V39.8571H182.199V40.8855H177.302V40.8922Z" fill="#002350"/>
<path d="M184.597 40.8922V35.011H182.475V33.9827H187.891V35.011H185.762V40.8922H184.597Z" fill="#002350"/>
<path d="M51.4508 25.9241L41.8989 25.0772V31.2205H43.5358L51.4508 25.9241Z" fill="#002350"/>
<path d="M13.8159 27.6515L23.7921 26.3072V22.7584H21.4951V20.0497H23.8191V17.8249H19.6561V14.35H15.4932V10.4382H14.3346V14.35H12.4013V6.45245H11.2427V14.35H9.20834V10.4382H8.04972V14.35H5.63144V17.1528H2.61365V30.582L6.68228 30.1988L9.15445 34.6618L13.8159 34.03V27.6515ZM16.0388 18.9138H17.3052V22.1938H16.0388V18.9138ZM8.4 22.1938H7.13361V18.9138H8.4V22.1938ZM11.5862 22.1938V18.9138H12.8526V22.1938H11.5862Z" fill="#002350"/>
<path d="M15.486 33.8009L34.6234 31.2199V26.2528L15.486 28.9212V33.8009Z" fill="#002350"/>
<path d="M93.2953 21.8375L90.8366 19.8816L88.8831 20.0497V18.1274H86.7612V5.45098L85.1715 6.02229V7.96475L58.8331 0H56.6708V2.82295H55.9433V14.592L37.109 6.66082H35.2498V9.09393H34.6234V22.3954L36.4691 25.998V31.2272H39.79V25.1982L38.3148 22.3954V19.9892L55.9433 16.9982V18.282L58.0854 22.4693V24.0892L47.2267 31.2339H58.8264L33.2155 33.7679L8.22438 36.5102L5.61075 31.5633L-0.00720215 32.6252V37.7469L4.17595 41.0134L83.8647 40.2472L87.9266 31.402L78.9136 31.2272L90.4324 29.5334L93.2953 21.851V21.8375ZM37.109 9.08721V7.54803L52.9659 14.2223L38.308 9.08721H37.1023H37.109ZM38.3148 16.9175V9.96098L54.1919 15.4523L38.3148 16.9243V16.9175ZM58.8331 2.82295V0.87377L74.8045 5.68623L80.9412 7.53459L60.2342 2.82295H58.8331ZM82.8004 8.80492L74.4947 9.7459L60.2275 11.3657V3.71688L82.7936 8.80492H82.8004ZM70.8572 22.0862L61.9452 23.2221V21.5216L60.2342 18.2685V15.0557L75.1211 11.9774L76.7648 11.6346L85.1715 9.89377V18.1274H82.989L82.9688 20.547L70.8572 22.0862Z" fill="#002350"/>
<path d="M105.399 29.393V8.72572H109.791V14.5881L109.67 18.4738L112.526 14.9537L118.083 8.71895H123.242L116.089 16.8965L123.545 29.393H118.48L112.984 20.1052L109.791 23.5915V29.393H105.399Z" fill="#002350"/>
<path d="M123.572 25.3854L126.455 21.9939C127.836 24.5866 130.813 25.7238 133.272 25.7238C135.05 25.7238 136.343 25.1688 136.343 23.7472C136.343 22.1428 134.996 21.6215 132.261 21.0664L130.268 20.6332C127.075 19.9833 124.064 18.5685 124.064 14.649C124.064 10.7294 127.533 8.48195 131.709 8.48195C135.575 8.48195 138.674 9.96447 140.398 12.4286L137.421 15.793C136.067 13.6335 133.676 12.4624 131.312 12.4624C129.749 12.4624 128.611 13.1394 128.611 14.3443C128.611 15.8539 129.931 16.409 132.079 16.9032L134.41 17.4583C138.249 18.3519 140.856 19.9292 140.856 23.6253C140.856 27.5719 137.542 29.7043 133.09 29.7043C129.129 29.7043 125.478 28.4113 123.572 25.3854Z" fill="#002350"/>
<path d="M143.341 29.3926V8.72536H147.733V16.9909H156.51V8.72536H160.901V29.3926H156.51V20.9104H147.733V29.3926H143.341Z" fill="#002350"/>
<path d="M164.795 29.3926V8.72536H169.187V29.3926H164.795Z" fill="#002350"/>
<path d="M173.114 29.3926V8.72536H181.648C186.377 8.72536 190.001 10.9187 190.001 16.1312C190.001 21.3437 186.438 23.4084 181.648 23.4084H177.506V29.3926H173.114ZM177.499 12.6449V19.4956H181.487C183.757 19.4956 185.387 18.5682 185.387 16.1312C185.387 13.5385 183.757 12.6449 181.487 12.6449H177.499Z" fill="#002350"/>
<path d="M105.601 41.1848V34.2258H106.766V40.1491H110.309V41.1848H105.594H105.601Z" fill="#002350"/>
<path d="M110.316 37.6981C110.316 35.6943 111.69 34.1238 113.724 34.1238C115.759 34.1238 117.133 35.6943 117.133 37.6981C117.133 39.7019 115.745 41.2792 113.724 41.2792C111.704 41.2792 110.316 39.7086 110.316 37.6981ZM115.913 37.6981C115.913 36.263 115.179 35.234 113.731 35.234C112.283 35.234 111.542 36.263 111.542 37.6981C111.542 39.1332 112.283 40.1622 113.731 40.1622C115.179 40.1622 115.913 39.1468 115.913 37.6981Z" fill="#002350"/>
<path d="M117.463 39.0047L118.473 38.2533C118.608 39.3635 119.113 40.1623 120.177 40.1623C121.181 40.1623 121.518 39.7019 121.518 38.321V34.2186H122.683V38.4902C122.683 40.5075 121.868 41.286 120.17 41.286C118.736 41.286 117.772 40.4127 117.449 38.9979L117.463 39.0047Z" fill="#002350"/>
<path d="M124.192 41.1848V34.2257H125.357V41.1848H124.192ZM124.205 33.5285V32.4928H125.364V33.5285H124.205Z" fill="#002350"/>
<path d="M126.34 39.6413L127.169 38.8019C127.539 39.8173 128.583 40.2167 129.432 40.2167C130.126 40.2167 130.685 39.9662 130.685 39.3367C130.685 38.6597 130.126 38.477 129.23 38.2739L128.577 38.1317C127.593 37.9219 126.549 37.4751 126.549 36.155C126.549 34.835 127.674 34.1377 128.981 34.1377C130.287 34.1377 131.264 34.6657 131.763 35.6202L130.887 36.4596C130.503 35.5999 129.762 35.2208 128.913 35.2208C128.253 35.2208 127.775 35.5322 127.775 36.0602C127.775 36.6763 128.253 36.8929 129.008 37.0757L129.782 37.2652C130.887 37.536 131.884 37.9692 131.884 39.3028C131.884 40.562 130.826 41.2863 129.425 41.2863C128.105 41.2863 126.893 40.8057 126.354 39.6345L126.34 39.6413Z" fill="#002350"/>
<path d="M134.046 41.1851V35.2618H131.924V34.226H137.339V35.2618H135.211V41.1851H134.046Z" fill="#002350"/>
<path d="M137.818 41.1848V34.2258H138.983V41.1848H137.818ZM137.825 33.5285V32.4928H138.983V33.5285H137.825Z" fill="#002350"/>
<path d="M140.533 41.1845V34.2254H141.698V36.3307L141.658 37.6914L142.661 36.5474L144.85 34.2186H146.265L143.692 36.9806L146.413 41.1777H145.019L142.857 37.8336L141.698 39.0588V41.1777H140.533V41.1845Z" fill="#002350"/>
<path d="M150.939 41.1851V35.2618H148.817V34.226H154.233V35.2618H152.104V41.1851H150.939Z" fill="#002350"/>
<path d="M154.711 41.1848V34.2258H155.877V41.1848H154.711ZM154.725 33.5285V32.4928H155.883V33.5285H154.725Z" fill="#002350"/>
<path d="M156.975 37.6981C156.975 35.6943 158.174 34.1238 160.302 34.1238C161.831 34.1238 162.889 34.9158 163.374 36.2765L162.363 37.0279C162.148 35.9787 161.508 35.2408 160.316 35.2408C158.888 35.2408 158.214 36.2562 158.214 37.7049C158.214 39.1535 158.888 40.169 160.316 40.169C161.501 40.169 162.148 39.4176 162.363 38.3818L163.374 39.1265C162.889 40.4736 161.831 41.2792 160.302 41.2792C158.174 41.2792 156.975 39.7086 156.975 37.7049V37.6981Z" fill="#002350"/>
<path d="M163.549 41.1851L166.257 34.226H167.597L170.305 41.1851H169.025L168.365 39.4318H165.442L164.782 41.1851H163.549ZM165.826 38.4163H167.988L167.287 36.5344L166.917 35.2753L166.546 36.5344L165.833 38.4163H165.826Z" fill="#002350"/>
<path d="M170.77 41.1848V34.2258H173.888C175.296 34.2258 176.347 34.9501 176.347 36.3853C176.347 37.5496 175.552 38.2333 174.467 38.362C174.878 38.4838 175.161 38.7478 175.41 39.1811L176.589 41.1848H175.249L174.05 39.1201C173.794 38.653 173.437 38.4838 172.79 38.4838H171.942V41.1848H170.776H170.77ZM171.942 35.2683V37.5293H173.78C174.515 37.5293 175.148 37.2585 175.148 36.4191C175.148 35.5391 174.515 35.2683 173.78 35.2683H171.942Z" fill="#002350"/>
<path d="M177.296 41.1848V34.2258H182.193V35.2615H178.462V37.1096H181.553V38.1453H178.462V40.1423H182.193V41.1781H177.296V41.1848Z" fill="#002350"/>
<path d="M184.591 41.1848V35.2615H182.47V34.2258H187.885V35.2615H185.757V41.1848H184.591Z" fill="#002350"/>
<path d="M51.4522 26.1102L41.9009 25.2573V31.4446H43.5377L51.4522 26.1102Z" fill="#2864AA"/>
<path d="M13.8193 27.85L23.795 26.4961V22.9218H21.4981V20.1937H23.8219V17.953H19.6592V14.4531H15.4965V10.5133H14.3379V14.4531H12.4048V6.49898H11.2462V14.4531H9.212V10.5133H8.05345V14.4531H5.6353V17.276H2.61768V30.8015L6.68609 30.4156L9.15812 34.9105L13.8193 34.2742V27.85ZM16.0421 19.0496H17.3084V22.3531H16.0421V19.0496ZM8.40371 22.3531H7.13738V19.0496H8.40371V22.3531ZM11.5897 22.3531V19.0496H12.8561V22.3531H11.5897Z" fill="#2864AA"/>
<path d="M15.49 34.0437L34.6263 31.4442V26.4416L15.49 29.1291V34.0437Z" fill="#2864AA"/>
<path d="M93.2943 21.9941L90.8358 20.0242L88.8824 20.1934V18.2573H86.7606V5.49006L85.171 6.06547V8.02185L58.8341 0H56.6719V2.84319H55.9444V14.6966L37.1112 6.70857H35.2521V9.15912H34.6257V22.556L36.4713 26.1844V31.4511H39.792V25.3788L38.3169 22.556V20.1325L55.9444 17.12V18.413L58.0864 22.6304V24.2619L47.2283 31.4578H58.8273L33.2179 34.0099L8.22819 36.7719L5.61471 31.7895L-0.00292969 32.8591V38.0175L4.17999 41.3074L83.8642 40.5357L87.9259 31.6271L78.9134 31.4511L90.4316 29.7452L93.2943 22.0076V21.9941ZM37.1112 9.15236V7.60214L52.9672 14.3242L38.3102 9.15236H37.1045H37.1112ZM38.3169 17.0388V10.0324L54.1931 15.5631L38.3169 17.0456V17.0388ZM58.8341 2.84319V0.880034L74.8046 5.72699L80.9409 7.5886L60.2351 2.84319H58.8341ZM82.8 8.86804L74.4948 9.81577L60.2284 11.4472V3.74353L82.7932 8.86804H82.8ZM70.8574 22.2446L61.946 23.3886V21.6759L60.2351 18.3995V15.1637L75.1212 12.0632L76.7647 11.718L85.171 9.96469V18.2573H82.9886L82.9684 20.6943L70.8574 22.2446Z" fill="#002350"/>
</g>
<defs>
<clipPath id="clip0_6017_68">
<rect width="190" height="41" fill="white"/>
</clipPath>
</defs>
</svg>
